<svg xmlns="http://www.w3.org/2000/svg" width="632" height="497" viewBox="0 0 632 497"><g fill="none"><path fill="#DADADA" d="M205.32 149.8h-2.15l.43 3.88.86 1.51 3.45-.22 2.37-1.93 2.16-.66.43 2.16-2.38.65-.64 2.37-.86 2.16-1.08 2.8-.22-1.29-1.51-2.16h-1.5l-.65 3.66.43 3.02 5.82 4.53 1.07 1.94 3.46 1.72 5.17-.43 3.44-1.08 5.18-5.18.64-1.07 1.73-.21 1.72-3.24 3.02 1.73 2.59-1.51.65-2.37-.65-2.59.21-3.23 1.3-1.3-.86-2.37.86-.86 1.72 1.73.65 8.83 1.51 1.94 3.01 1.94-.43 1.51h-2.15l-.22 1.07-.43 1.95.22 3.23.64 2.37 2.8-.43 1.08 1.08-1.29 4.31-1.08 2.8 1.08 4.74 1.72 1.51.22 4.31 1.94 3.67 2.16 1.93-.87 2.38-2.15 2.15v2.8l.86 2.38 1.29 1.94-1.07 3.44-.43.86-.44 1.3 2.37-.22 2.59 1.08 2.8-1.3 2.15.22 1.3 1.08 1.94-2.81-1.29-1.07.21-3.88 3.67-1.29 1.07-1.51 3.45-.86 1.29.64 1.51-.43 1.94 1.29 1.3-2.8 2.37-2.37.64-2.8 1.3-5.17.43-7.33 1.5-2.37v-3.02l-.42-2.15 1.72-.87-1.08-1.07.43-1.08 2.37.43-1.29-1.94-2.8.22-1.73-1.3 1.95-1.5 4.09.21 1.72-1.51 1.08-2.8 1.29-.22-.42 1.94 1.29.87 2.37-.22.43-1.29 1.29-1.52 1.08-1.5-2.37-1.29h-5.17l-1.08.64-.86-.86-2.38-1.51h-4.31l-1.5-.86 1.72-1.29 3.23-.65h1.94l1.73.22.43 1.08h2.16l-1.95-2.81.87-1.72 1.72.86 1.29 1.94v2.8l1.94.43 3.45-2.15 1.73-4.31-1.08-3.23-2.16-2.59.65-1.73-2.8-.43-2.8-.21-.44-1.94-1.29-.43-.86-2.81v-1.29l.65-9.27 1.29-.86v-1.94l.21-5.6v-1.73l1.94-1.51.87-2.58 2.37-.86 1.5-1.94-.21-1.3 1.51-1.5.43-1.3 1.51.22 2.8-2.59 1.51-.21 2.59-3.67 3.87-1.72.44-3.45 4.52-3.67.22-2.8-.86-1.08.43-9.48 1.72-3.45 3.02-3.45 4.96-.64 5.81.21 4.1 2.16.65 4.74.86 1.51-.86 1.51-3.89 5.17-2.15 3.88-2.58 3.88-1.94 1.08-.86 3.44-1.51 2.38-2.59 1.72-.43 2.59-1.73 1.72-3.23-1.5h-3.01l.64 1.72 2.59.86-1.08 7.97 1.51 3.67-.43 3.66.64 3.45 1.95 2.37-.44 1.51-1.29 2.16v4.09l.21 2.59 1.08 1.72 2.16.65 2.15 3.23 2.59 1.08 2.8.43.43 1.72-.21 2.59.64 1.51 3.02-1.73 1.94-1.72 3.67-.43 2.8-1.3 1.94-1.72h3.01l1.08-1.08 1.94-.64 3.88-2.59 3.45-1.08 4.09-.43 6.02-9.05 2.59-4.2 8.08-18.75-.97-5.5-6.14-5.17-.65-8.41-2.91-3.88.32-2.26-3.23-1.29-.32-3.88-.33-3.56-.32-5.82-1.62-2.26-.96-5.17-5.18-9.38 2.91-4.85-.97-5.17-2.58-.65-1.3-2.9-3.87-1.62V29.22l1.93-.97.97-5.5 2.91-2.59 1.94.33v-2.27l-.02-.4-1.25-.57-2.16.65h-1.94l-1.94-1.08-1.51-1.72 1.08-.87 3.45.43 4.31-3.23-1.51-2.8-1.51-.22-3.23-3.87-4.1-.22-1.29.22-1.08 3.23-.43 2.37-1.94-.86V4.54l1.94-1.51-.86-1.94-3.23-.22-1.94 2.37 1.08 1.51-1.51 6.9h-1.51l.21-5.61-1.07.44-1.73 6.25-2.16 3.44-1.07-2.58 2.37-6.25.86-3.02-2.37-.86-1.08 1.08-.21.65v1.29l-1.94 2.58-.21 1.94-2.16 1.51-1.73 2.15-.65 1.73.87 1.51-1.08 1.07-1.51-.43-.43-2.58-1.51-1.73-3.23-.43-3.88 1.08-.65 1.51 4.1.86 1.29 2.37-2.59.65h-2.8l-1.08-.21-.64 2.8-.22 4.09-1.08.43-.43-4.31.65-1.73-1.29.22-1.51 2.37-.65 1.08-.43-3.02h-2.37l-1.07 1.94 1.28 2.8 3.46 2.59-1.52 1.08-3.44-2.37-1.51-1.51-2.16 2.15v2.16l-1.51 1.51-2.37 3.66-3.01 3.24.43.86h3.66l-1.94 1.29h-3.87l-1.3 1.51-.44 3.88-1.5-1.51-1.72 1.29-1.95.65.87 1.51-1.3 1.29-.64 1.08 3.02 1.07-.87 1.09-3.01-.22-.86 1.51.64.86 3.45 1.29-1.08.87-4.52-.87-1.73 1.51-1.51 1.3-1.08 1.5-1.72.87-1.08 2.58-.86 1.73-.22 1.29 1.73 1.08 1.51-.22-1.08 1.72-3.45.87-1.94 3.66-.86 2.8-.65 1.08-1.94.65-.21 1.72 1.94.43-.43 1.51-1.3 1.73-2.15-1.08-1.73.64-1.5 2.81.21 2.8-1.29 2.58-4.74-.43-3.45 4.75-2.37 2.37-.43 1.72h3.23l1.07 1.08 2.59-.86-.21-2.16 3.88-1.94v3.67l-4.31 4.09-3.24.43-1.94 1.29-.86-2.8-2.8-.43-1.51 1.73-1.51.43-2.37-1.94h-4.09l.21 1.29 3.66 2.37-2.58 1.29 1.29 1.52-.86 1.07-3.44-3.02-1.3-.86-1.51 1.08 4.1 4.09-1.73.87-3.88-3.02-2.59-.43-2.37 3.23 2.59 2.8 1.51 1.51-1.73 1.08-3.01-1.94-1.73-1.29-1.72.43.65 2.58h-1.08l-.65-1.72-1.29.21-2.38.43 1.3 2.16 3.23 1.51 3.45.86.22 1.51h-2.15l-3.67-1.08-2.38-1.29-1.5.21.21 3.88 1.29 1.73-1.29.86-1.29 2.37 1.72 1.08 1.51-.43 3.88.86 2.59-.86 2.37 1.29 1.72-.86 1.3-.22.21 3.02-2.37.22-.43 1.07h-1.51l-.86-1.07-2.59.43-3.87-.65-2.38-.86-1.72.43-.43 3.66 1.29.65 1.29 1.08-2.8.86-1.51-1.73-1.29 1.73 1.08 3.66 2.58 1.3 2.59-2.16 2.59-1.51 4.31.43-1.08 2.16-1.5 1.08-1.3-1.3-1.51 1.3-3.02 1.72-.86 1.08 2.37.86-2.8 3.23z"/><path fill="#E3E3E2" d="m360.06 158.45.17.02.06-.04z"/><g fill="#DADADA"><path d="M398.8 346.77v-1.08l-4.37.56-2.8 3.45-3-.43-1.93-1.1-2.59-1.49-1.3-3.87 1.51-7.76-.43-5-1.29-2.8-3.88-3.45-2.59-2.36-2.8-.87v-3.87l-3-3.24-5.82-2.37-3.23 4.53h-5.17l-2.38 1.94-4.3-.86-1.51-1.08-3.45.64-6.25-.43-5.17.64-.65-1.71-3.88-.22-1.52-3.21-2.09-.15.37-2.86 1.94-1.07-.43-4.11 1.5-.86 1.73-.21 1.07-.22.22-1.72-2.15-1.08-.44-4.74 8.73-10 2.59-1 .65-5.82-3.88-5.82-.65-3.55V263l-3.55-4.52 4.2-3.56-.65-7.44v-5.49l-1.29-3.88 2.26-2.26 6.14 1 .32-3.56 2.92-.32 1-1.3 2.91 1 1-1.29-1.62-2.91 1.62-2.59-1-1.94 1.61-2.58 2.26.32V219l2.59-.65 1-1.93-2.59-1.29-.32-1.3 1.62-2.26 2.26-1.94 3.88.32 5.82-5.49-1.62-6.14-4.93-6.17 1.94-2.91-.65-1.61-3.55-1.94 2.91-3.72-.4-2.51-2.76-3.46-1.62-7.27 1.62-2.92 1.78-5-.25-2.27-.79-.07-.59.39-4.31.87-3.23-.65-4.31-.87-4.53.65a13.18 13.18 0 0 1-2.8 1.73 3.64 3.64 0 0 0-1.51.86h-2.37l-3.66 3.66-1.73.22-.43 5 1.51 1.95-.22 1.07-1.07.87 1.29 1.72 3 2.8 1.29-.43 1.29-.86.22 1.94v1.72l-1.08 3 .43 3 1.29 3.66-1.07 2.37-.44 1.72-3.23.22-3.43-4.08-2.58-.65-1.73-2.16-1.08-.86-5.6 2.8-.86 1.51-.65 4.31-2.37 2.38.44 3.66-1.11 1.69-.22 3.24.22 1.93.21 3.67 1.08 1.72.22 3.45-.22 2.59.86 1.51-1.29 1.29-4.31-.43 3-4.32.64-2.15-.86-1.29s-2.8 6.25-5 7.33l-1.51.86-1.07-.43-.87 1.08-.43 1.72-.21 1.51 1.94-.65 1.72 1.08-.86 1.51-1.94 1.72-4.09 4.1-1.52.43-.21-1.08 5-4.53-.22-.86-1.94.65-3.66 2.59-3.67-.22-2.58-3 .22-1.29 1.93 1.51 1.94-.22-.64-1.94-4.53-1.94-4.53.65-3.87 2.16-1.94.21-4.31 2.8-4.48 2.14-5.82 1.29-2.37.43-1.08 1.94-1.73 2.37-2.16-1.29-1.94-.44-1.29-3.87-3.61-1.08-2.37-2.59-1.94-2.36-2.15.43-2.37 2.58-3.45.43-2.16 2.16-2.8-.22-2.37.87.43-1.73 1.51-1.51-.64-2.37-2.59.43-3.67-2.15-1.51-4.1v-1.51l-1.93-1.29.86-4.74-.22-4.74 2.16-1.29 3.45-2.81.86-1.51-.22-2.15 1.08-.86 1.51 1.51 1.72.21 1.08-3.45-3.45-1.94v-5.17l-3-.86-3.89.64-1.07.87v2.8h-1.29l-1.08-2.8h-1.08l-1.29 4.52-1.29-1.29 1.07-4.31 3.67-1.73 5.38-.64 5.18 1.29 2.37-3-.65-4.32 1.94-.86-.22-1.29-4.95 1.29-2.16.65-1.72 3-3.45 1.07-2.8.65-5.17 3.45-1.3 3.66-1.08 5v2.15l1.08 1.08-.21 1.51-2.16 1.29v1.73l1.29-.22 1.52.43-.46 1.48 1.3 1.73-.86 1.94v2.15l-.49 1.56-.38 1.24-.43-1.51-.65-1.5-.86 1.72-.43 3 1.29-1.3 1.51 1.51.44 1.51 1.29.87-.43 1.72-2.38.64v1.3l1.94 1.08v.84l-1.72.21.22.86 2.37 1.08 1.08.87 1.5.64-.64.86-3.45-.64-1.73-.44-1.51 1.3-.86 1.72.43 1.94-.64.64-1.08-1.28-.86 1.72-1.73-.22.22-2.15.86-1.72-1.08-2-1.72.44-3.67-.65-.43.86-1.07 1.3-1.08 1.5 1.08 1.73-.65 1.29-2.59-2.59-3 .22-2.36.43-2.59-.86-3.88 2.15-.22 3.24 1.08 1.72.43 1.73-1.07 1.51-2.38.43-2.15 1.5-1.29-1.93 2.37-2.38.64.65v-1.94l-.86-2.37-.86-1.51-1.94-.43-.65 3-1.08 3.66-3.23 3-1.51 3.23-3.23 1.94-3.66 2.16-.87.86.87 1.08 3.23.64-.43 1.3-4.53-1.3h-6.25l-2.09.81-.71.27-3.45.65-3.45.22-1.5 1.5-1.08 5-.43 3 1.94 1.51h-4.1l-7.76.86-2.59.86-.86 1.51.86 1.51 1.52.64-5.61 1.08-6.25-2.8-2.59-.21.87-2.59.21-2.37-2.37.21-1.94-.86-1.51-1.08-1.08 1.51.43 4.31.87 1.51-.87 3.66-.64 1.94 1.51 1.51h-3.24l-3.44-1.72-4.53-.43-1.51-1.51-.21-2.37-3.88-.86-2.16.86-3.88-1.08h-4.53l-3.23 1.51.65 1.08 1.51-.22 2.15.86.22 1.3H89.8l-1.94-.65L87 280l2.37.43-.86 1.94-1.3.65.44 1.72 3.23-.22 1.29-.86 4.74 5.61 1.29.64-1.07 1.73.43 1.29 2.15-1.29.87-.22.86 1.08-.65.86 1.73.43 1.29.22-.86 2.37.86 1.51 3-.22 1.07.86.44.87h-2.81l-.86 1.29-.43 1.29v1.51l.22 3.67.64 2.37 1.94 2.15 1.73.65 3 1.29-1.29 1.94-.43 1.72v2.16l-.86 1.51v.86l1.08 1.29.21 1.94 1.29 3.45.43 2.59-.21 2.37-1.08 1.3-.64 1.28-.87-.64.44-2.16V328l-1.73-3.45-2.37 6-.86 1.73.64.64-.64.65 1.08.43-.22 1.07-1.29.22-2.38 3.45-1.29 2.8-2.8 5.17v1.73l-1.94 2.15-1.94-.65H89.8L87.65 348l-3-2.58-1.08.43-.86 1.29-1.51-1.5-.65-1.3-1.72.22-.83-1.87-4.53.65-1.29-1.51-3.88-.43-3-2.15-2.37-.86-3-3-2.93-1.53-3.45.64-3.66-2.14-5-1.52-.86-1.72-1.73-.22-1.5-2.15-3.24-.65-1.51.86-1.5.44-1.3-.65-1.08.86 2.38 1.72-.86 1.51-1.69-1.07h-2.12l-1.29-.87-4.53.22-2.15 2.8 1.09 1.73.21 1.29 1.08 1.73 1.29.64-1.51 1.51 1.51 1.08-.43.64-1.72 1.08.64 1.07-.49 1.14-.15-.06.14.07-.36.8-1.51 2.58-2.58 8-1.12 4.29-2.37 4.95-1.94 2.37-.86 3-.43 1.93-3.88 3.89L6.39 377l-.86 1.94-1.73 3-1.5 1.51-.22 2.55 1.92-.2 2-1.5h2.37v2.36l-2.15.86H4.24l-.65 2.81h2.8l1.08-.87 2.15.87-.62 1.72H6.82l-.86 4.1-1.72 5.17-1.08 4.1L1 408.65l-.21 1.72H2.3l3-1.07 2 1.5h2.58l3 2.59h1.51l3-.43 3.24.64 2.58 2.59 2.37 5 .65 2.37-.21 2.8-.65 3.88 3 3.45 1.3 1.94 1.73.43 1.93-1.08 5.61-3.23 2.15.43 3.91-1.76 6.47.65 3.88 2.36 5.17.22 2.15 1.08 3-.44 1.94 2.16 1.94.22 3-5.18 3.88-1.07 1.07-1.73 6.91.43 1.28.87 1.51-.65-.43-2.8 6-6.47 2.8-.64 2.58-2.37v-2.16l-2.1-1.9v-7.54l12.29-11.64 1.94.65 1.72-1.51-.22-1.73 3.24-1.51 10.13-.86 4.52-2.37h3.67l5.38-4.53-.21-3 1.51-1.3-1.94-3-.22-1.94 3-3 .65-2.37 4.31-.44 4.09-2.8 2.37.43 3.24 2.59 4.74-.22 1.72 1.73 1.94 1.73 1.73 1.94.64 1.29 4.1.43 5-.65.87-2.58 4.09-.86.65-1.95 4.08-1.24v-.48l.87.21 4.3-.21 3.46-3.88 2.36-.65 2.16-1.51 2.37 1.94L204 364l2 2h2.37l2.16 1.94.21 2.38-.43 2.58.86 3.67 1.94 2.79-.43 2.81.65 1.29 2.37.43.21 1.94 1.94 1.3v3.23h3.88l.86 1.51.22 2.37 3 2.58 2.15 2.59 2.38 2.59 1.29 2.58 1.72-.43 3.45 4.53 3-.86 1.94.86 2.15.21.86 2.16 5 4.31.22 1.94 1.93-.21 2.59 2.15.22 1.51-.65.86.43 1.51 3.88 1.94 3-.22 1.73 3.67.86 3.45.86 2.58 1.29 2.37.22 2.8.86 2.38-1.51 1.5-2.37.65-.21 2.8-.87 1.94-1.72 1.51-.65 2.16.86 1.72h4.1l3-2.37 1.5-3.67 1.51-.21.22-4.74 2.8-3.24 3 .22 1.5-3-1.07-2.8.65-1.08-2.81-1.94-3.87-.86 1.93-3.88.22-2.8 4.31-4.74 3.67 3.23 2.37.65 2.8 1.94 1.29 2.58 2.37.65.65-2.8.86-1.94-1.29-3.45-4.75-3.88-4.09-1.29-3.88-3.23-3.67-2.16-5.38-1.3-3-3.66.86-1.08H268l-.21-3.45-5.39-.64-5.39-.43-5.18-3.88-5.6-6.46-.64-7.11-2.8-5.4-4.28-4.15-6.68-6v-7.54h1.94l1.08-2.59-1.29-2.8-1.94-2.58 1.29-1.51h1.73l1.5 1.29 2.37-2.37 2.37-.43.87-1.94 4.74.43.78.95.3.34-.65 1.94-2.16 1.08.22 4.09 1.29 2.37 1.94 2.16 1.51-1.07 1.08-2 .65-2.58 1.07-.86 2.16.86 1.08.43 1.51 3-.22 2.59.86 3.45 3 2.16 2.16 1.07 1.29 1.3-.22 1.29-1.29-.65-2.16-.43-1.72.22-.86.86 1.5 1.3 2.81.86 1.72 1.93 1.51.87 1.08.86V377l2.37 2.15 1.29-.86 2.37 1.29 3 1.95 2.81 1.93 3.66 3 1.72 1.29-.86.43-1.94-1.51-1.3.65 1.52 1.08 3.66.65 2.15.86 2.16 2.59.74.43L292 394l1.72.21 1.72 2.58 1.73 2.38 2.64 1.5.37.22 2.16 1.94v2.59l-.86.86-.44 3 .22 3.23.87 1.29-.44 1.29-1.51.43v5.82l1.3 1.73 3.66 4.31 1.51 2.59.93.64 1.23.86.86 2.16.43 3.66 3.23 3 .43 1.94 1.51.43.87-.64 2.36.43 1.08 1.07-.21 1.08-3.88-1.08-.43 1.52 1.08 1.93 2.79 2.81-.43 1.5 1.08.65 1.94-1.08h4.1l1.72-.86 3.67-.43h3l.65 1.72h1.08l1.29-.21 1.29 1.51 1.73.21.22 1.51-2.38.87-3.66-1.08-3-1.08-3.66-1.3-1.94.65-1.94 1.51-2.59.86-1.29 1.73 1.29 1.51h.65v1.5l1.51.87 1.5 2.79.22 3.24-.65 3 2.81 3 1.72.87v-1.73l-.21-2.15 1.72-.22 2.59 2.37.43 2.8 1.07 1.3.65-.65v-3.16l1.94-.43 1.72 2.37 2.16.86.43-1.72-.86-3.67-1.29-2.58-.44-2.8-2.15-1.73 1.08-1.51 1.94.86.86 1.72 2.16.66.64-1.52 1.51-.64.65-1.29-.87-1.08-2.37-.65-.65-2.37.87-2.15 2.15.21h1.51l3 .87 1.51-1.52-.43-2.58-2.59-2.59-2.59-1.72-1.51-.43-1.3-.87-1.72.22-2.8-1.94-2.8-1.29 3-.65.65-1.51-1.08-2.16-.22-1.5.87-.86.86.64V438l.86.86 1.3-.65-.65-2.79L339 433l-3.88-7.76-.43-5.81.65-1.51 1.29.21-.22 2.37 1.73 1.08 1.08 1.08.43 1.5 2.15 1.95 1.51.64 1.73-.43-.22-1.51-3-1.72.65-.43 2.8 1.08.86 1.72h1.08v-1.72l-1.72-1.08-.65-1.51 1.29.21 1.73 1.51 1.29.87 1.29-1.3-1.72-1.94-2.16-.86-.43-3.23h4.1l1.72-2.81 1.94-.21.86 1.08h1.73l1.51-2.59v-1.29l-.22-1.29 1.72.43 1.51 2.15 2.37.22 1.51 1.5 3.45-.21.43 1.08.89.13 4.93.73-.49.84-2.8.86s-1.73 1.51-1.3 2.37a.63.63 0 0 0 1.08.22l5.17-2.8 2.81-1.94 3.23-1.29.86-1.73.21-2.16 2.59-1.5 3.45.43 2.8-1.08 2.37-.65h2.8l1.08-1.51-1.29-3.23h-3.95l-4.74-3.23-1.08-2.16-.13-2.24h.06l-.07-.12-.07-1.3-3-4.31-1.51.43-1.93.43.21-1.73 4.75-4.3-.87-3.89.65-1.93 4.09-3.67 2.37-.43.65-1.07-.86-2.16.65-11.85.86-.65.21-3.24v-1.5l1.51.21.65.86-.86.86v1.08h.64l1.08-1.51 3-.86 1.08-.86.43-3-2.17-3.25Zm-275.19 26.5-.4-1.26 1.29-1.08 1.51.22-.22 1.72-2.18.4ZM60.92 211.98l.16.97-2.91.64-1.94 1.3 1.13 1.62 4.69.64.49.81-4.53.49.32 1.45 3.56-.16-.97 1.13-1.29.81-.65.81h3.56l1.94.97.81-.81 3.55.81 2.43-.81.96-3.24.82-.64 1.45 2.75 1.61-.33 3.08.16 2.42-1.45 2.75.16 3.23.81 2.1 1.29 1.3-1.45-.49-1.3 1.62-.16.16-1.29 1.45-2.1 2.27-2.75 1.78-3.88.16-4.85 1.29-3.88 1.62-1.45 3.71-.97 1.46-4.2.49 3.55 1.29-2.1v-2.91l-1.94-.32.32-.65 1.46-2.75-1.3-3.71-2.42-2.1-4.37-.33.81-3.07-1.78-1.14-1.77.81-1.78 3.89-.65-1.3.81-2.91-4.37.32-2.74 2.27-.97.64-2.75.49-.16 2.26 3.39-.16 1.13 1.29-1.94.65-2.91 1.13-1.29.97-.97-.65-.48-.8-2.91.65v-1.3l-2.59-.81h-3.56l-2.26 3.07 1.46 2.75-1.62 1.62h-2.43l-.48 2.43 4.36 4.36 2.43.16.97.97-1.94 1.29-1.78-.32-2.26 2.59-3.88.64-.49 1.3 5.34.64 3.71-.64.49 2.1-2.42-.33-3.56.49-1.13-.64-3.07.64-.97.97-1.3-1.29-2.91-.17-2.26 1.3.65 1.45z"/><path d="m147.56 162.52-.65 3.55-7.11 7.77-1.61 3.22-2.7-.32-1.29.86 1.94.86-.43 1.08-2.8 1.08-3.24-1.51-2.58-.43.21 1.29 4.32 2.37 4.52.44 2.8 2.15 2.15 10.13-1.72 4.53.65 3.02 2.8 4.09 2.37 1.73 1.08 11.42-1.73-.22-2.8-1.72h-2.37l.21 1.08 5.83 3.66.21 5.82-1.08.86.43.86 5.82.22 3.67 3.66.21 2.59-.86 3.66-3.23 4.31-.86 1.73-1.94 1.07-3.02.22 1.94 1.51-1.73.65-2.58-.65-1.73 1.29 4.96.86.86 1.08 2.81.22-.87 2.8-3.23 1.08-1.51 1.07-5.39 1.08-3.87-2.37-5.39-.43-3.02-1.29-1.29-1.3-2.59 1.51-2.37-1.07-1.51.64h-3.45l-2.37-2.58h-4.74l-2.37 3.66-2.38-.21-3.01-3.67h-3.67l-.86-1.08-3.44.86-1.08 2.59-1.94-.65-.22-1.08-2.37-.21v-1.51l1.72-1.72 2.16.65 2.37-1.73 3.66-.22 3.67-2.15.43-2.37 2.8.43-.22-1.94 2.59-.21 1.73 1.07 2.8.65 1.08 1.29h1.51l2.58-1.07 1.94-2.59-1.07-.65-3.45 1.72-3.88-1.72v-1.94l-4.74.21v-1.07l2.15-.87-1.51-2.36-3.88.43h-1.51l.44-1.51h-2.59l-.87-1.51 3.46-3.02 1.07.65 1.29-1.08 4.53-.43 3.45-2.15.22-5.18-.43-.86-1.73.65h-2.37v-1.73l1.94-.86 1.94-.43 2.16-1.08 1.29.22 2.58-1.08 2.16-.22 2.37 2.38.43-2.38 1.29-.86 1.51-1.29-.21-2.15 1.51-.44 1.29-1.08-.22-2.58-2.15 1.29-.43-3.02-1.73-3.02 1.51-2.36 1.73-1.72 2.8-.22-1.73-2.38-1.94-.21-3.23 1.29-1.72-2.15h-1.3l-1.07 1.72-3.88-.21-.43-4.32 3.23-2.8 1.29-3.01 1.29-3.45 2.37-2.37-.21-1.73h-1.94l.65-1.94-.43-1.5-2.16 2.58-1.89.97-2.2 3.13-.87 2.15-.64 1.3-1.08-.87.43-1.93 1.51-3.24 1.72-3.45 4.1-4.74 1.29-1.29 1.72-.65-1.07-1.08h-4.74l.21-1.51-1.08-1.51.87-1.29 1.94-.21 3.23-1.29.86-2.16-1.29-3.23 2.37-.44-.65-2.36 2.37-1.52 2.37 1.3.43-3.45 1.51-1.51h1.3l3.23-3.45 1.08 2.16 1.51.86 7.97.43.65 1.08-1.08 2.8-6.47 3.02-2.37 1.29 2.16.22-.86 1.5-3.02.66-.65 1.5.65.86 9.91-.64 2.8 2.37z"/><path d="m114.42 213.11-.64 1.13-4.04.49-1.46-1.62 1.94-1.78 3.4.49zm1.62-15.19.81 1.13-2.59 3.71h-3.39zm-.81-16.82-.32 2.91-1.62-.32.81-2.75zm5.17-38.47 1.78 1.46-.81 1.94-7.11 4.2-1.45-2.26 2.42-3.56zm-3.07 10.51.33 3.07 1.13 2.75-1.94 1.78-1.94-.32-1.46-5.34.98-1.94 2.1-.48zm-7.11-2.91 1.62.81-.98 1.94-2.09-1.62zm-1.61 4.85-.17 3.88-1.13-.97-.32-2.75zm-4.21 3.88 1.3.16-.17 1.29-2.58.65.16-1.29zm8.08 6.63 1.14 1.62-.17 2.58-1.77.48-.97-1.93-.49-2.27 1.46-.97zm-3.23-1.94.17 1.45 1.61-1.13-.81-1.13zm-2.58.32 1.13 1.78-1.46.48-1.78-.8zm-.33 11.8h1.78l.97 1.78-1.78 1.45-1.45-1.61zm6.31-3.23-1.78 3.23-1.78-1.13 2.91-2.75zm31.84-30.23 1.61.33.81 2.58 1.46.97-1.94 1.29-3.07-3.07zm8.24-3.39 2.91-.17.16 1.62-1.45.49-2.59-.81zm-3.34-3.13 1.08 1.08-.86 1.72-1.83-1.08.65-1.61zm.65 4.74 1.4 1.51.32 2.48-1.29-.22-2.04-3.66zm56.79-10.78.43 1.3-2.8 1.08.43-1.94zm-1.94 15.31 1.73 1.29-.44 1.73-1.72-.22-.43-1.29zm32.98-44.4-2.15.65-1.08-1.3 1.5-1.29 2.8.22v.86zm16.81-16.59-.86 1.72-2.81.21-.21-1.72 1.29-1.08zm5.17-9.27 1.29.86-.64 1.72h-1.73l-.64-2.15zm5.17-7.12.87 1.09-1.73 1.5-2.58 1.51v-1.51l1.29-1.94zm-1.29-23.27v1.29l-1.29 4.53-1.51-.22v-1.94l1.08-3.01zm5.6.21-1.5-.64-.22-1.73 2.8-1.5 1.94 1.07.65 1.51-.86 1.08zm8.62-1.94-1.07 1.73-2.59 1.07-.64-.86 1.29-3.01 1.94-1.08 2.15.22zm5.18-6.46 1.51-.65-.22 1.51 1.73-1.08.86 1.08-1.94 2.8-2.16 1.51-1.07.22-1.51 1.94-.22-1.73 1.08-3.02zm3.02-6.9.21 1.51-3.23 3.66-1.94-.86 1.72-3.45 2.16-1.07zm7.75-3.23.65.86-.86 3.02-2.37 1.07-1.94-1.94.43-1.72zm21.77-17.03 3.02-.86.86 1.72-2.15 2.59-3.45-1.08-.22-1.29zm-11.85 5.6 2.15 1.95-.21 1.07-1.29.43-2.37-2.58zm18.1-11.63 1.51 1.29-.43 1.51-1.94.43-.43-1.94zm8.84-2.37 1.07 1.07-.43 1.08-2.79-.86zm7.97 440.96 1.73-.86 1.94-.21 2.16 1.51 1.72.43.65.64 1.07 1.3 1.08-.65 1.94.43.65 1.29.21 1.73 3.02 2.15 1.51 1.73-.44 1.29-1.5.86-2.38-2.58-1.29-2.59-1.94-.86-3.01-1.51-3.45-1.94-1.94-1.51zm-33.83-11.63 1.07 1.29-.21 1.94v1.51l1.08.64 1.07.65-.43 1.08h-1.72l-1.94-1.3-.43-2.37-1.29-2.37.64-1.29zm71.77 55.82-.22 1.07-.86 1.3-.22 1.29-1.29.86h-3.88l-1.51 1.3-4.31.43-1.51.86-2.8-.21-.22-1.95-2.15-1.08-1.29 1.08-4.32-.22-2.15-.64-1.08.86h-1.93l-.87-2.37.22-3.01 1.72-1.08.86 1.08h2.37l.65-.65 2.59 1.72 1.08.65 3.01-.43.87-.64.86.64 1.93-.64 1.51-.22.87.86 2.58.21 3.02-1.5.43 1.5 2.16-.21 2.15-1.08zm-36.64-9.05 1.51 1.29-.44 1.07-1.29-.21-.86-1.51zm-25.22-18.75 1.51.21 1.94.86-.43.86-1.29 1.08-1.94-1.51zm-1.51-7.12.21 1.08 1.52 1.08.64.85-.64.87-3.45-.43-.22-2.15zm.21-5.6.66.65v1.5l-1.09.44-.21-2.38zm41.17-29.74h1.51v.85l-1.07 1.08-1.73-.21-.43-1.3zm8.63 7.54-1.51.21-1.08.65-1.73.21-.21 1.3 1.07 1.29h2.37l1.3-1.51zm-5.61 7.54.65-.64h1.29v1.07l-1.08.43zm-3.23 8.4 1.08.66 1.5 1.5-.43 1.08-2.8-1.94zm10.77 23.93 1.3.43.21.86-.86.86-1.72-.43-.86 1.3-1.09-.43.44-1.94 1.72-1.08zm-3.88-6.25 2.16-.21.21 1.07-1.29.87-1.5-.22-.65-1.08zm-7.75 2.37-1.08-.64.64-1.08.87-.22 1.08 1.3zm.43 1.51.64-.43 1.29.86-.64 1.29-1.72-.43zm.64 9.48 1.08.43-1.08 1.94-.86-1.07zm2.37-3.87 1.51.64-.64 1.29-1.3-1.07zm8.63 6.46.86.65-.65 1.5-1.51-.21v-1.29zm6.68-7.33-.43.87-1.94 1.93-1.3-.21v-1.08zm1.94 3.45 1.51-.22.42 1.08-1.07 1.3-1.08-.87zm0-13.79-.86 1.72-1.51 1.3-1.08-.65.86-1.3zm-4.96-11.64.21 1.72.22 1.08-.43 1.08-.22 1.29 1.73 1.29 1.07-1.93v-2.59l-.21-1.94zm-26.51-5.39 1.29-.43.22.86-1.29.43zm3.23-.43 1.51-.22.65 1.3-1.51.64zm3.24-2.59 1.07.65-.21 1.29h-1.51v-1.29zm-91.5 13.36 1.3.33-.97 2.91-3.88 8.73.97 1.61.64 3.23-1.29 1.95v2.26l-2.26.97-2.26-1.29-5.17-.97-1.3-2.92-3.88-.64-7.11-5.17-5.82-2.91-2.59-3.88 2.59-2.59 1.94-2.26.97 1.29 4.85-.65 3.23 2.26 4.85.66h4.85l5.5-1.62 1.93.65 1.62-1.95zm-14.87 32.34.33-1.3 1.62.32 1.61 1.3-.32 1.61-1.29.33zm-24.24-15.85.64 1.62.97.65-.64 1.29-1.62-.65-.64-1.94zm-22.96-61.42 3.56.32 1.29 1.62.97.64-.32 2.59 1.29 1.94-.64 2.59-1.94 2.91.64 1.29.32 2.26-1.93 4.86-.65 4.84-1.29 1.62-3.88-.65-2.59 3.55-2.91.98-1.29-4.53-1.94.65 1.61-8.09.97-4.2-.97-1.94.97-2.26-.32-2.58-1.62-1.95.32-3.88 2.27.98 1.62-1.3 2.58.64zm5.82-24.9-1.29-.32-.32 1.94-.33 1.94-1.29-.65-2.27 1.94-2.58.98-1.29 3.55v4.53l.96.96.33 1.94.97.65-.97 2.27 1.29 1.61 2.27 1.29 1.61-1.61.33-1.94 2.58-3.88-.32-3.23.97-3.56-.33-6.47zm-70.15 29.74h1.61v2.59l1.3.65.97.32.64.97-6.14 5.18-.65-1.29-1.61-1.3-.65-1.94-1.61.97-1.63-1.3.33-1.93 3.24-.33zm9.05-.32 2.27.97h1.61l1.29 1.62-.32 1.94h-2.58l-2.92-1.62-.97-1.61zm70.8-25.21.97 1.94-.97.96-2.59-1.29.65-1.61zm-23.6 18.75v1.62l-1.62.96-.32-2.26zm-4.85 26.51v1.29l-1.29 1.62-.65-1.62zm.97 3.87 1.29.33-.32 1.62h-1.29zm24.57 59.49h1.62v1.94l-1.94 1.94-1.62-1.61zm70.48-103.56-1.51.65-3.66-.21-.44-1.3 1.94-.64 4.1.42zm-23.93-19.39 2.81 3.23 2.15.86-2.15-2.59-3.02-2.15m-2.8-11.42h1.07l.65 2.15v3.88l-1.94-2.81-.43-2.36zm2.15-1.73 1.08.21.43 1.52-.86 1.07-.86-1.72zm.65 4.09.65.44.43 1.29-1.08.43zm1.29 4.32 1.51 1.07 2.15 1.52-1.07.86-1.94-1.52zm23.71 26.08h1.29l1.51.43v.64l-1.72.43-1.3-.64zm-2.16-4.32-3.23.65-2.37-1.08-1.51-.43 1.51-.64 2.59.64zm-4.74-3.44 1.73.43-1.3.65-1.29-.86zm-3.88 3.66 1.29.21.44.87-1.51.86-.86-1.08zm-162.07-67.68.64-.21.65 1.51-.65 1.08zm-.65-4.74 2.8 1.51.44 1.08-1.73.21-2.37-1.93zm-4.1-12.07.86.86-.64 1.08-1.29-.64v-1.08zm-7.11-4.95 1.3-.22.86 1.08-.21.86h-1.3l-1.29-.86zm18.75-28.88 1.08.21-.43 1.07h-1.08zm-5.6 1.51h1.08l.65.86-.87.86zm3.02 4.52.86-.21.86.86-.86.43zm11.21-17.03 1.93-.21 1.73.65-.22 1.07-1.51.43zm59.27-19.39 1.5-.87 1.3.87-.87.64zm2.37-1.73.86.65 1.29-.65-.86-.64zm3.66-1.29 3.23-.21-.43.64-2.8.22zm5.17-.43 2.37.22-.21.86-2.59-.43zm6.25-.43 1.08-.22.43.87-1.94 1.07zm54.53-1.73-1.72-1.5-1.08-2.38 1.72-1.72 2.81.86.86.86.21 2.16zm12.5-13.57 1.72 1.29.44 1.72-1.3 1.3-2.8-2.59.43-1.08zm-19.4-11.43 1.73 1.3.86 2.15-1.29 2.8-.65 1.73.22 1.72-1.73 1.73-.86.64v2.37l-1.94.22-1.29-.87v-2.36l-1.73-.65-2.37-1.29-.43-3.24 1.08-3.02 1.07-1.29-.43-1.51 1.94-.21 1.08 1.08.65.86v2.8h.86l.22-4.1.86.22v3.67l1.08-.65v-3.45zm-16.59 4.96 2.8.21.43.65 1.51.44.21 1.07 1.08 1.29.65 2.16-.43 1.72-1.3 3.02-1.5.65-.43-.86 1.29-1.3.21-2.8-1.07.43-2.37.21-3.23-2.58-.87-2.37.65-1.51zm6.68 9.91 1.51.22.64 1.08 1.3-.22.86.43-.43 1.94-1.51 1.08-2.37-.86-.65-1.51zm4.74.44.43 1.72-1.08 2.15 1.08.22 2.16-3.02-1.08-.21zm3.45.21 1.51-.43 2.15.43-2.15.86zm-5.6-32.98 1.94-.42.86.42-1.08 1.3-1.08-.22zm45.9 2.81-1.08 7.76-1.72 1.93-2.37 4.75-1.29.43.22-1.51 1.93-5.82 2.16-2.37.86-4.74zm14.23-8.41.64 1.3-1.28 1.93.42 2.8.43.65-1.51 1.73-.86 1.29-1.94 1.94-.86 2.15-1.29.22-.22-1.94-.86-3.66 1.94-4.1 2.37-2.37.43-1.72zm1.5 0 .87-.65 1.72.43-.64 1.08-.86.65zm26.95-9.05 1.72.22-.21 1.5-1.3 1.08v1.29l-3.01 1.08-1.94 1.51-1.08 3.67-1.08.86-.21-5.17.21-1.52-.64-1.72 2.37-1.08 1.72-.43 1.29-.86zm-3.02-5.6.86 1.5 1.08.22v1.07l-1.08.87-.86 1.08-1.51-.87-.86-.86-.64-.86 1.07-.86zm-21.12-18.76.65-.43 2.58 1.29.22 1.3-1.51.43v1.08l.64.86-1.72.64-1.08-1.07-1.08-.43-.21-1.08 1.29-.65zm19.61 3.23h1.51l.65.66-1.51 1.72-1.29-.65zm43.65 281.42.65-.81 2.91-1.13 2.42.65.81 1.93.32 2.59-2.42-.64-2.1-1.3zm29.46 36.52.32 1.46-.65 2.74-2.9 2.75-1.3-.97v-2.75l2.59-2.91zm-8.73 7.76-.64 3.39-.17 2.27-1.29.48-.16-2.42.16-2.91.81-1.13zm-5.34 6.47 1.78-1.13h.81l-.16 1.13-2.27.97zm-2.02-31.69h1.29l.32.97-3.07.97-1.13-.64.81-.97zm87.75 18.06 1.73-.65.86.43-2.37 3.66-1.94 2.37-.65 1.52 1.73 1.28-.44 1.08-1.51.86-1.93 1.08-1.3 1.08-1.08 3.02-2.8 1.72-2.8 2.16-1.51-.65-2.15-.86-1.3.86-3.02-2.15-1.72-2.59.22-2.37 2.59-.44 2.15-2.36 3.02-.44 1.07-2.36 2.81-.22 1.29.22 2.15-.87 2.16-1.29 2.37-1.94zm-84.05-57.98 1.29-.87 1.29.65-.43 1.08-1.29.43zm-275.38 4.81 1.13-2.26 2.59-1.13 2.42 1.13-.32 1.61-2.91.97-.97 1.29z"/></g><path fill="#E3E3E2" d="m110.87 420.5 1.13.97-.48 1.13-1.13-.16z"/><path fill="#0A8FCF" d="M342.51 460.69a15 15 0 0 0 0-21.52c-6.103-5.94-15.827-5.94-21.93 0a15 15 0 0 0 0 21.52c6.103 5.94 15.827 5.94 21.93 0"/><path fill="#1C95CD" d="M192.865 326.595a15 15 0 0 0-4.55-10.76c-6.103-5.941-15.827-5.941-21.93 0a15 15 0 0 0 0 21.52c6.103 5.94 15.827 5.94 21.93 0a15 15 0 0 0 4.55-10.76Z"/><path fill="#83162A" d="M244.66 409.32a15.32 15.32 0 0 0 0-22c-6.219-6.085-16.161-6.085-22.38 0a15.32 15.32 0 0 0 0 22c6.219 6.085 16.161 6.085 22.38 0"/><path fill="#024C93" d="M172.63 280.28a15.31 15.31 0 0 0 0-21.95c-6.219-6.085-16.161-6.085-22.38 0a15.31 15.31 0 0 0 0 21.95c6.219 6.085 16.161 6.085 22.38 0"/><path fill="#36722F" d="M78.19 400.26a15.31 15.31 0 0 0 0-21.95c-6.219-6.085-16.161-6.085-22.38 0a15.31 15.31 0 0 0 0 21.95c6.219 6.085 16.161 6.085 22.38 0"/><path fill="#F6BB07" d="M161.64 374.46a15.31 15.31 0 0 0 0-21.95c-6.218-6.079-16.152-6.079-22.37 0a15.29 15.29 0 0 0 0 21.95c6.218 6.079 16.152 6.079 22.37 0"/><path fill="#22335A" d="M296.7 175.28a15.31 15.31 0 0 0 0-21.95c-6.219-6.085-16.161-6.085-22.38 0a15.33 15.33 0 0 0 0 21.95c6.219 6.085 16.161 6.085 22.38 0"/><path fill="#A21F3B" d="M219.87 306.82a15.31 15.31 0 0 0 0-21.95c-6.218-6.079-16.152-6.079-22.37 0a15.31 15.31 0 0 0 0 21.95c6.218 6.079 16.152 6.079 22.37 0"/><path fill="#253570" d="M376.22 366.63a15.31 15.31 0 0 0 0-21.95c-6.219-6.085-16.161-6.085-22.38 0a15.31 15.31 0 0 0 0 21.95c6.219 6.085 16.161 6.085 22.38 0"/><path fill="#000100" d="M310.4 254.28a20.4 20.4 0 0 1-12.72 4.41 19.9 19.9 0 0 1-14.68-6.35c-4.14-4.227-6.207-9.677-6.2-16.35 0-6.5 1.93-11.883 5.79-16.15a19.15 19.15 0 0 1 14.83-6.38 22.33 22.33 0 0 1 11.42 3.17 19.34 19.34 0 0 1 8 9h7.82v-19h-7.82V212c-5.38-4.227-12.023-6.343-19.93-6.35-8.94 0-16.19 2.783-21.75 8.35-5.56 5.567-8.34 13.047-8.34 22.44 0 8.58 2.767 15.78 8.3 21.6 5.533 5.82 12.867 8.73 22 8.73a32.31 32.31 0 0 0 18.51-5.43 25.8 25.8 0 0 0 10.7-15.34l-7.86-4.3a23.43 23.43 0 0 1-8.07 12.58m29.24 4.11v7.41h22.14v-7.41h-6.51V214h6.51v-7.42h-22.14V214h6.51v44.42l-6.51-.03Zm67.2 8L426.71 214h7.34v-7.42h-23.19V214h7l-15 39.78-15.3-39.78h7v-7.42H370.7V214h7.47l20.29 52.43 8.38-.04Zm36-8v7.41H465v-7.41h-6.51V214H465v-7.42h-22.12V214h6.51v44.42l-6.55-.03Zm41.87 7.41v-4.89a21.84 21.84 0 0 0 14.85 5.83 19.34 19.34 0 0 0 13.48-4.94 16.16 16.16 0 0 0 5.46-12.53 17.42 17.42 0 0 0-2.61-9.5 15.61 15.61 0 0 0-6.21-5.9 64.42 64.42 0 0 0-11.59-3.8 71.32 71.32 0 0 1-8.21-2.39 7.81 7.81 0 0 1-3.43-2.66 6.9 6.9 0 0 1 1.3-9.54c1.767-1.487 4.3-2.23 7.6-2.23a14.66 14.66 0 0 1 12.81 6.85v4.13h7.38v-18h-7.34v4a22.14 22.14 0 0 0-13.46-4.6 18.5 18.5 0 0 0-12.7 4.45A15.09 15.09 0 0 0 477 222a14.71 14.71 0 0 0 2.32 8.32 15.3 15.3 0 0 0 6.23 5.41 69.81 69.81 0 0 0 12 4c4.667 1.22 7.837 2.447 9.51 3.68s2.513 3.257 2.52 6.07a8.89 8.89 0 0 1-3.08 7 11.12 11.12 0 0 1-7.5 2.72c-5.853 0-10.587-3.223-14.2-9.67v-5.23h-7.6v21.5h7.51Zm-202.3 39.55 2.75 6.48H288l-10.48-23.95-10.72 23.95h2.84l2.81-6.48h9.96Zm-1-2.37h-7.88l4-9.16 3.88 9.16Zm19.32 8.85h12.07v-2.36h-9.49v-9h9.21v-2.36h-9.21v-6.79h9.49V289h-12.09l.02 22.83Zm19.1-14.25h-2.47v8.22c0 3.79 1.45 6.43 5.75 6.43s5.75-2.64 5.75-6.43v-8.22h-2.47v7.95c0 2.39-.28 4.46-3.28 4.46s-3.28-2.07-3.28-4.46v-7.95Zm16.2 0h-2.47v14.25H336v-7.12c0-1.85.13-5.28 2.85-5.28a2.43 2.43 0 0 1 1.48.64l1.17-2.21a4.37 4.37 0 0 0-2.22-.67c-1.61 0-2.35.82-3.22 1.94H336l.03-1.55Zm14.65 14.65a7.52 7.52 0 1 0-.22-15.038 7.52 7.52 0 0 0 .22 15.038m0-12.8a5.28 5.28 0 1 1-5.16 5.28 5.11 5.11 0 0 1 5.16-5.28m18.3 0c3.06 0 4.89 2.31 4.89 5.16S372.18 310 369 310s-4.77-2.64-4.77-5.43a4.88 4.88 0 0 1 4.73-5.13m-4.6-1.85h-2.47v22.26h2.47v-10h.06a6.16 6.16 0 0 0 5 2.4c4.35 0 7-3.43 7-7.49 0-4.06-2.69-7.55-6.95-7.55a6.15 6.15 0 0 0-5 2.43h-.06l-.05-2.05Zm28.43 7.65c.25-4.25-2.22-8-6.89-8s-7 3.49-7 7.7 2.77 7.34 7.1 7.34a7.36 7.36 0 0 0 6.71-4l-2.1-1.18a5 5 0 0 1-4.42 2.94 4.67 4.67 0 0 1-4.76-4.76l11.36-.04Zm-11.27-2.07a4.55 4.55 0 0 1 4.41-3.73 4.41 4.41 0 0 1 4.27 3.73h-8.68Zm21-3.73c3.06 0 4.89 2.31 4.89 5.16s-1.67 5.4-4.86 5.4c-3.19 0-4.76-2.64-4.76-5.43a4.88 4.88 0 0 1 4.73-5.13m7.24-1.85h-2.48v2h-.06a6.31 6.31 0 0 0-5-2.43c-4.36 0-7 3.49-7 7.55s2.69 7.49 7 7.49a6.16 6.16 0 0 0 5-2.37h.06v2h2.48v-14.24Zm7.35 0h-2.47v14.25h2.47v-6.76c0-2.54.22-5.64 3.62-5.64 2.88 0 3.06 2.06 3.06 4.37v8h2.47v-8.46c0-3.33-.92-6.18-4.94-6.18a4.9 4.9 0 0 0-4.14 2.12h-.07v-1.7Zm41.37-6.77a11.37 11.37 0 0 0-7-2.24 11.83 11.83 0 1 0 7 21.41v-3.16a10.3 10.3 0 0 1-7.05 3 9.46 9.46 0 1 1-.06-18.92 10.12 10.12 0 0 1 7.11 3v-3.09Zm6.4 6.76h-2.47v14.25h2.47v-14.25Zm-1.24-7.09c-.96 0-1.744.77-1.76 1.73a1.77 1.77 0 0 0 3.53 0 1.77 1.77 0 0 0-1.77-1.73m6 7.09h-2.84l7.14 15.2 7.11-15.2h-2.79l-4.32 9.59-4.3-9.59Zm15.83 0H483v14.25h2.48l-.01-14.25Zm-1.24-7.09c-.96 0-1.744.77-1.76 1.73a1.76 1.76 0 0 0 3.52 0 1.76 1.76 0 0 0-1.76-1.73m16.26 8.12a7.94 7.94 0 0 0-4.49-1.42 7.59 7.59 0 0 0-7.75 7.52 7.46 7.46 0 0 0 7.73 7.52 8 8 0 0 0 4.6-1.45v-3.25h-.06a5.68 5.68 0 0 1-4.73 2.46 5 5 0 0 1-5-5.28 5.14 5.14 0 0 1 5.13-5.28 5.64 5.64 0 0 1 4.52 2.4h.06l-.01-3.22Zm14.1-9.61H512v14.31c0 2.61.24 4.7 2.28 6.62a8.86 8.86 0 0 0 6 2.33 8.66 8.66 0 0 0 6.28-2.61c1.86-1.88 2-3.85 2-6.34V289H526v13.62c0 1.78.1 3.79-1.14 5.24a6.2 6.2 0 0 1-4.58 2 6 6 0 0 1-4.7-2.18c-1.08-1.45-1-3.4-1-5.09l.01-13.59Zm20.18 8.61h-2.47v14.26h2.47v-6.77c0-2.54.22-5.64 3.61-5.64 2.88 0 3.07 2.07 3.07 4.37v8h2.48v-8.46c0-3.34-.94-6.19-4.95-6.19a4.92 4.92 0 0 0-4.15 2.12h-.06v-1.69Zm15.86 0h-2.47v14.25h2.47v-14.25Zm-1.24-7.09c-.96 0-1.744.77-1.76 1.73a1.77 1.77 0 0 0 3.53 0 1.77 1.77 0 0 0-1.77-1.73m6 7.09h-2.81l7.14 15.2 7.11-15.2H564l-4.32 9.59-4.29-9.59Zm25.53 7.64c.25-4.24-2.22-8-6.89-8s-7 3.49-7 7.7 2.78 7.34 7.11 7.34a7.37 7.37 0 0 0 6.71-4l-2.1-1.19a5 5 0 0 1-4.43 2.95 4.65 4.65 0 0 1-4.75-4.77l11.35-.03Zm-11.28-2.06a4.56 4.56 0 0 1 4.42-3.73 4.41 4.41 0 0 1 4.27 3.73h-8.69Zm16.1-5.58h-2.47v14.26h2.47v-7.13c0-1.85.13-5.28 2.85-5.28a2.43 2.43 0 0 1 1.48.64l1.17-2.21a4.47 4.47 0 0 0-2.22-.67c-1.61 0-2.35.82-3.22 1.94h-.06v-1.55Zm15 2.25a4.35 4.35 0 0 0-3.86-2.64 4.09 4.09 0 0 0-4.32 4c0 4.49 6.55 3.4 6.55 6.58a2.19 2.19 0 0 1-2.35 2.19c-1.64 0-2.35-.94-3-2.28l-2.19.91a5.2 5.2 0 0 0 5.13 3.61 4.71 4.71 0 0 0 4.91-4.64c0-2.4-1.67-3.4-3.37-4.1-1.7-.7-3.37-1.17-3.37-2.48a1.76 1.76 0 0 1 1.8-1.58 2.31 2.31 0 0 1 2 1.46l2.07-1.03Zm6.4-2.25h-2.47v14.25h2.47v-14.25Zm-1.23-7.09c-.96 0-1.744.77-1.76 1.73a1.76 1.76 0 0 0 3.52 0 1.76 1.76 0 0 0-1.76-1.73m8.06 9.34h2.6v-2.25H614v-5.12h-2.47v5.12H610v2.25h1.51v12H614l-.03-12Zm8.17 10.67-4.7 9.34h2.81L631 297.58h-2.82l-4.69 10.22-5.14-10.22h-2.87l6.66 12.95Z"/><path fill="#88BD2A" d="M130.26 190.63a15.31 15.31 0 0 0 0-21.95c-6.218-6.079-16.152-6.079-22.37 0a15.31 15.31 0 0 0 0 21.95c6.218 6.079 16.152 6.079 22.37 0"/><path fill="#145841" d="M251.21 330.32a15.32 15.32 0 0 0 0-22c-6.218-6.079-16.152-6.079-22.37 0a15.31 15.31 0 0 0 0 22c6.218 6.079 16.152 6.079 22.37 0"/></g></svg>